<svg width="96" height="37" viewBox="0 0 96 37" fill="none" xmlns="http://www.w3.org/2000/svg">
<g clip-path="url(#clip0)">
<path d="M44.8059 8.33988H40.5704C39.9829 8.33988 39.5889 8.58191 39.3286 9.19152L34.5689 20.2665L33.1336 9.19152C33.0738 8.62376 32.7291 8.33988 32.1803 8.33988H29.1215C28.4179 8.33988 28.0274 8.78572 28.1048 9.4754L28.6607 13.4916L25.1604 20.9525L24.1156 9.19152C24.061 8.58191 23.711 8.33988 23.1622 8.33988H18.9285C18.2249 8.33988 17.8327 8.78572 17.91 9.4754L20.4394 27.7693C20.4992 28.337 20.8809 28.6209 21.4297 28.6209H25.1938C25.4653 28.6277 25.7325 28.5502 25.9611 28.3984C26.1896 28.2466 26.369 28.0275 26.4761 27.7693L29.6984 21.0217L30.6307 27.7693C30.6905 28.337 31.0739 28.6209 31.6227 28.6209H35.3868C35.6583 28.6274 35.9254 28.5498 36.1539 28.3981C36.3824 28.2463 36.5618 28.0273 36.6691 27.7693L45.4338 9.4754C45.7469 8.78572 45.5095 8.33988 44.8041 8.33988H44.8059ZM44.4225 28.6209H48.3431C48.6248 28.6389 48.9022 28.5434 49.1173 28.3544C49.3324 28.1655 49.4684 27.8977 49.497 27.6073L52.6068 9.35348C52.7176 8.70383 52.4309 8.33988 51.7994 8.33988H47.8788C47.5973 8.32196 47.3201 8.41752 47.1053 8.6065C46.8905 8.79549 46.7548 9.0632 46.7267 9.35348L43.6151 27.6073C43.5043 28.2551 43.791 28.6209 44.4225 28.6209ZM67.7019 8.28711C65.0794 8.28711 62.9528 8.68745 61.3786 10.2342L61.5281 9.35348C61.6389 8.70383 61.3522 8.33988 60.7207 8.33988H56.8001C56.5184 8.32193 56.241 8.41743 56.0259 8.60638C55.8108 8.79532 55.6748 9.06305 55.6462 9.35348L51.1574 35.7197C51.0466 36.3694 51.3333 36.7333 51.9648 36.7333H55.8854C56.1671 36.7513 56.4445 36.6558 56.6596 36.4668C56.8747 36.2779 57.0107 36.0102 57.0393 35.7197L58.5713 26.7266C59.6267 28.2733 61.3698 28.6209 63.9924 28.6209C69.1284 28.6209 74.1608 24.5247 75.1897 18.4795C76.2187 12.4343 72.8451 8.28893 67.7072 8.28893L67.7019 8.28711ZM63.7936 23.4292C61.0884 23.4292 59.4525 21.5221 59.9714 18.4795C60.4903 15.4369 62.7752 13.5316 65.4804 13.5316C68.1857 13.5316 69.8215 15.4369 69.3043 18.4795C68.7872 21.5221 66.4988 23.4292 63.7936 23.4292Z" fill="#623F99"/>
<path d="M0.514136 22.694C0.266126 26.7557 3.3724 28.5172 7.15059 28.5172C11.2243 28.5172 15.1731 26.6392 15.9242 22.2336C17.1976 14.7618 7.08199 17.4058 7.56394 14.5707C7.69586 13.8046 8.38009 13.2677 9.7503 13.2677C10.6016 13.2677 11.1574 13.6517 11.321 14.265C11.4969 14.8 11.6218 15.1075 12.1759 15.1075H15.8028C16.3955 15.1075 16.8247 14.7618 16.8581 14.1103C17.1062 10.0486 14.0439 8.28711 10.5911 8.28711C6.70206 8.28711 2.74095 10.2415 2.00219 14.5707C0.735761 22.0043 10.832 19.4749 10.3624 22.2336C10.2322 22.9997 9.54802 23.5366 7.99312 23.5366C6.88148 23.5366 6.23419 23.1526 6.05829 22.5011C5.8824 22.0043 5.75048 21.6968 5.19466 21.6968H1.57301C0.980253 21.6968 0.551073 22.0425 0.517653 22.694" fill="#623F99"/>
<path d="M87.743 8.28711C81.9192 8.28711 77.1173 12.7164 76.1481 18.454C75.1789 24.1917 78.3397 28.6209 84.4591 28.6209C88.2197 28.6209 91.5335 26.8885 93.5369 23.5384C93.9362 22.9215 93.646 22.4593 92.9829 22.4593L89.4369 22.4975C88.9584 22.4975 88.6295 22.6904 88.2056 22.9979C87.3591 23.6148 86.3511 23.9506 85.3157 23.9606C83.3949 23.9606 81.8277 23.0507 81.5445 20.7651H93.8571C94.1183 20.7821 94.377 20.7023 94.5865 20.5398C94.796 20.3774 94.9427 20.1431 95.0004 19.8789C95.1165 19.4167 95.2308 18.9544 95.3152 18.454C96.2967 12.6308 93.1236 8.28711 87.7412 8.28711H87.743ZM82.271 16.3777C83.1645 14.4579 84.7757 13.4133 86.8442 13.4133C88.4694 13.4133 89.9645 14.1867 90.1651 16.3777H82.271Z" fill="#623F99"/>
<path d="M52.137 5.67936H56.0576C56.339 5.69682 56.6159 5.60111 56.8307 5.41221C57.0454 5.22331 57.1812 4.95586 57.2097 4.66577L57.8412 1.01354C57.952 0.365713 57.6653 -5.71031e-05 57.0338 -5.71031e-05H53.1044C52.8227 -0.0180079 52.5453 0.0774945 52.3302 0.26644C52.1151 0.455386 51.9791 0.723115 51.9505 1.01354L51.3331 4.66577C51.2223 5.3136 51.509 5.67936 52.1405 5.67936H52.137Z" fill="#D3CCE5"/>
<path d="M48.2939 5.67937H52.2128C52.4944 5.69732 52.7718 5.60183 52.9869 5.41288C53.202 5.22394 53.3381 4.95621 53.3666 4.66578L53.9893 1.01355C54.0983 0.365725 53.8134 -4.507e-05 53.1819 -4.507e-05H49.2595C48.9782 -0.0175087 48.7012 0.0782153 48.4865 0.267113C48.2718 0.456011 48.1359 0.723461 48.1074 1.01355L47.4847 4.66578C47.3739 5.31361 47.6606 5.67937 48.2921 5.67937H48.2939Z" fill="#623F99"/>
<path fill-rule="evenodd" clip-rule="evenodd" d="M57.5581 3.02803H50.1477V2.6532H57.5581V3.02803Z" fill="white"/>
</g>
<defs>
<clipPath id="clip0">
<rect width="95" height="36.7333" fill="white" transform="translate(0.5)"/>
</clipPath>
</defs>
</svg>
